/* XPM */
static const char *i_add[] = {
/* width height num_colors chars_per_pixel */
"    16    15       6            1",
/* colors */
". c #000000",
"c c #c0c0c0",
"d c #808080",
"e c #f80000",
"k c #f8fcf8",
"l c None",
/* pixels */
"llddddddddddllll",
"lldkkkkkkkkcdlll",
"lldkkkeekkkckdll",
"lldkkkeekkk....l",
"lldkeeeeeekkkc.l",
"lldkeeeeeekkkc.l",
"lldkkkeekkkkkc.l",
"lldkkkeekkkkkc.l",
"lldkkkkkkkkkkc.l",
"lldkkkkkkkkkkc.l",
"lldkkkkkkkkkkc.l",
"lldkkkkkkkkkkc.l",
"lldkkkkkkkkkkc.l",
"lldccccccccccc.l",
"lldddddddddddd.l"
};
