/* XPM */
static const char *i_branch[] = {
/* width height num_colors chars_per_pixel */
"    16    15        4            1",
/* colors */
"# c None",
"b c #f80000",
"c c #0000f8",
"d c #c0c0c0",
/* pixels */
"###c############",
"#ccccc##########",
"#cdddc##########",
"#cdddc##########",
"#ccccc##########",
"###c############",
"#ccccc##########",
"#cdddcbbbbb#####",
"#cdddc####b#####",
"#ccccc####b#####",
"###c####bbbbbb##",
"########bddddb##",
"###c####bddddb##",
"########bbbbbb##",
"###c############"
};
