/* XPM */
static const char *i_rw[] = {
/* width height num_colors chars_per_pixel */
"    16    15        7            1",
/* colors */
". c #000000",
"# c #808000",
"a c #c0c0c0",
"b c #808080",
"c c None",
"d c #f8fc00",
"e c #0000f8",
/* pixels */
"cccccccccccccccc",
"ccccccccc...cccc",
"cccccccc.bbb.ccc",
"cccccccc..#b.ccc",
"ccccccc.ad...ccc",
"ccccccc.ddd.cccc",
"cccccc.dddd.cccc",
"cccccc.ddd.ccccc",
"ccccc.addd.ccccc",
"ccccc.aaa.cccccc",
"ccccc....ccccccc",
"ccccc...cccccccc",
"ccccc..ccccccccc",
"ccccc.cccccccccc",
"cccccccccccccccc"
};
