/* XPM */
static const char *i_unlock[] = {
/* width height num_colors chars_per_pixel */
"    16    15        8            1",
/* colors */
". c #000000",
"# c #808000",
"a c #000080",
"b c #c0c0c0",
"c c #808080",
"d c #f8fc00",
"e c #0000f8",
"f c #f8fcf8",
/* pixels */
"bbbbbbbbbbbbbbbb",
"bbbbbbbbbbbbbbbb",
"bbbbbbbcbcbbbbbb",
"bbbbbbbcbcbbbbbb",
"bb...bbcbcbbbbbb",
"b.bcc.cbcbbbbbbb",
"b.cbb.cbc.....bb",
"b.cbb.cbcc.c..cb",
"bb...bcbcb.c..cb",
"bbbccccbcbbcbccb",
"bbbbbbcbcbbbbbbb",
"bbbbbcbcbbbbbbbb",
"bbbbbcbcbbbbbbbb",
"bbbbbcbcbbbbbbbb",
"bbbbbbbbbbbbbbbb"
};
