/* XPM */
static const char*i_warning[]={
"16 16 6 1",
"a c #c0c000",
"# c #808000",
"d c #404000",
"c c #000000",
". c None",
"b c #ffff00",
"................",
"....#abbbb#.....",
"...abbb#abbb#...",
"..bbbb#ccbbbb#..",
".abbbbccc#bbbb..",
".bbbbbccc#bbbb#.",
"#bbbbbccc#bbbbb.",
"#bbbbbccc#bbbbb.",
"#bbbbbdccabbbbb.",
"#bbbbb#ccbbbbbb.",
".bbbbbb#abbbbba.",
".bbbbbacdbbbbb#.",
"..bbbbccc#bbba..",
"..abbbdccabbb...",
"....bbb#abba....",
"......####......"};
