/* XPM */
static char *about[] = {
/* width height num_colors chars_per_pixel */
"    62    80        7            1",
/* colors */
". c #808000",
"# c #000080",
"a c #008080",
"b c #c0c0c0",
"c c #808080",
"d c #ffff00",
"e c #ffffff",
/* pixels */
"cccccccccccccccccccccccccccccccccccccccccccccccccccccccccccccc",
"ceeeeeeeeeeeeeeeeeeeeeeeeeeeeeeeeeeeeeeeeeeeebeeebeeeeeeeeebbc",
"ceeeeeeeeeeeeeeeeeeeeeeeeeeeeeeeeeeeeeeeeeeeebeeebeeeeeeeeebbc",
"ceeeeeeeeeeeeeeeeeeeeeeeeeeeeeeeeeeeeeeebbeeeceeebeeeeeeeeebbc",
"ceeeeeeeeeeeeeeeeeeeeeeeeeeeeeeeeeeeeeeeebbeebbebbeeeceeeeebbc",
"ceeeeeeeeeeeeeeeeeeeeeeeeeeeeeeeeeeeeeeeeecbebbeceebceeeeeebbc",
"ceeeeeeeeeeeeeeeeeeeeeeeeeeeeeeeeeeeeeeeeeecbebbbebceeeeeeebbc",
"ceeeeeeeeeeeeeeeeeeeeeeeeebbbeeeeeeeeebbbeeecbbbbbbeeeeeeeebbc",
"ceeeeeeeeeeeeeeeeeeeeeeeeaaaaacbeeeeeeeebcbbbbbbbbeebbbbeeebbc",
"ceeeeeeeeeeeeeeeeeeeeeebaaaaabaaeeeeeeeeeebbbbbbbbccbbeeeeebbc",
"ceeeeeeeeeeeeeeeeeeeeeeaaaaabbbaceeeeeeeeebbbbbbbbbeeeeeeeebbc",
"ceeeeeeeeeeeeeeeeeeeeebaaaaacbbaaeeeeeebbcbbbbbbbbcbbeeeeeebbc",
"ceeeeeeeeeeeeeeeeeeeeebaaaaaaaaaabeeebbeeeebbbbbbbeebcbbeeebbc",
"ceeeeeeeeeebbbbeeeeeeebaaaaaaaaaabeeeeeeeeecbbbbbbbeeeebeeebbc",
"ceeeeeeeeeaaaaaaeeeeeeeaaaaaaaaaaeeeeeeeeeceebbbbecbeeeeeeebbc",
"ceeeeeeeecaaabbaceeeeeeaaaaaaaaaceeeeeeebbeeecebbeebbeeeeeebbc",
"ceeeeeeeeaaaacbbaeeeeeebaaaaaaaabeeeeeeebeeebbeeceeebeeeeeebbc",
"ceeeeeeebaaaaaaaaeeeeeeebaaaaacbeeeeeeeeeeeebeeebeeeebeeeeebbc",
"ceeeeeeeeaaaaaaaaeeeeeeeeebbbbeeeeeeeeeeeeeebeeebeeeeeeeeeebbc",
"ceeeeeeeeaaaaaaabeeeeeeeeeeeeeeeeeeeeeeeeeeebeeeebeeeeeeeeebbc",
"ceeeeeeeeeaaaaaaeeeeeeeeeeeeeeeeeeeeeeeeeeeeeeeeeeeeeeeeeeebbc",
"ceeeeeeeeeebccbeeeeeeeeeeeeeeeeeeeeeeeeeeeeeeeeeeeeeeeeeeeebbc",
"ceeeeeeeeeeeeeeeeeeeeeeeeeeeeeeeeeeeeeeeeeeeeeeeeeeeeeeeeeebbc",
"ceeeeeeeeeeeeeeeeeeeeeeeeeeeeeeeeeeeeeeeeeeeeeeeeeeeeeeeeeebbc",
"ceeeeeeeeeeeeeeeeeeeeeeeeeeeeeeeeeeeeeeeeeeeeeeeeeeebbddddebbc",
"ceeeebbbeeeeeeeeeeeeeeeeeeeeeeeeeeeeeeeeeeeeeeeeeeddddddddebbc",
"ceeecaccbeeeeeeeeeeebddddddddddbeeeeeeeeeeeeeeeeddddddddddebbc",
"ceeeaaabaeeeeeeeebdddddddddddddddddeeeeeeeeeeebdddddddddddebbc",
"ceeeaaaaaeeeeeebdddddddddddddddddddddbeeeeeeedddddddddddddebbc",
"ceeecaaabeeeeedddddddddddddddddddddddddeeeeebdddddddddddddebbc",
"ceeeebbbeeeeedddddddddddddddddddddddddddbeeedddddddddddddbebbc",
"ceeeeeeeeeeeddddddddddddddddddddddddddddddeddddddddddddddeebbc",
"ceeeeeeeeeedddddddddddddddddddddddddddddddddddddddddddddbeebbc",
"ceeeeeeeeeddd.ccc.ddddddddddddddddddddddddddddddddddddddeeebbc",
"ceeeeeeeeddd.aaaaacddddddddddddddddddddddddddddddddddddeeeebbc",
"ceeeeeeebdddcaabaaadddddddddddddddddddddddddddddddddddeeeeebbc",
"ceeeeeeeddddaaabaaa.ddddddddddddddddddddddddddddddddbeeeeeebbc",
"ceeeeeebddddaaabbaa.ddddddddddddddddddddddddddddddbeeeeeeeebbc",
"ceeeeeedddddcaaaaaaddddddddddddddddddddddddddddddeeeeeeeeeebbc",
"ceeeeeeddddddcaaaa.ddddddddddddddddddddddddddddddbeeeeeeeeebbc",
"ceeeeebddddddd.c.ddddddddddddddddddddddddddddddddddeeeeeeeebbc",
"ceeeeeedddddddddddddddddddddddddddddddddddddddddddddeeeeeeebbc",
"ceeeeeeddddddddddddddddddddddddddddddddddddddddddddddeeeeeebbc",
"ceeeeeedddddddddddddddddddddddddddddddddddddddddddddddeeeeebbc",
"ceeeeeebdddddddddddddddddddddddddddddddddddddddddddddddeeeebbc",
"ceeeeeeedddddddddddddddddddddddddddddddddddddddddddddddbeeebbc",
"ceeeeeeeeddddddddddbddddddddddddddddddddddddddddddddddddeeebbc",
"ceeeeeeeeebddddbbebdddddddddddddddddddddddbdddddddddddddbeebbc",
"ceeeeeeeeeeeeeeebdddddddddddddddddddddddbeeebddddddddddddeebbc",
"ceeeeeeeeeeebddddddddddddddddddddddddddeeeeeebdddddddddddeebbc",
"ceeeeeeeeeeeeddddddddddddddddddddddddeeeeeeeeeeddddddddddeebbc",
"ceeeeeeeeeeeeeebddddddddddddddddddbeeeeeeeeeeeeebddddddddeebbc",
"ceeeeeeeeeeeeeeeeeebbdddddddddbbeeeeeeeeeeeeeeeeeebbdddbeeebbc",
"ceeeeeeeeeeeeeeeeeeeeeeeeeeeeeeeeeeeeeeeeeeeeeeeeeeeeeeeeeebbc",
"ceeeeeeeeeeeeeeeeeeeeeeeeeeeeeeeeeeeeeeeeeeeeeeeeeeeeeeeeeebbc",
"ceeeeeeeeeeeeeeeeeeeeeeeeeeeeeeeeeeeeeeeeeeeeeeeeeeeeeeeeeebbc",
"ceeeeeeeeeeeeeeeebeeeeeeeeeeeeeeeeeeeeeeeeeeeeeebeeeeeeeeeebbc",
"ceeeeeeeeeeebc######ceeb#c##c#eeeeeeec#c#ceeec######ceeeeeebbc",
"ceeeeeeeeeb###########ce######beeeeee####bec##########beeeebbc",
"ceeeeeeeeb#######bbbc#cec#####ceeeeec####eb#####bbbcc#beeeebbc",
"ceeeeeeeb######ceeeeeeeee######eeeee####ce#####beeeeebeeeeebbc",
"ceeeeeeec######eeeeeeeeee######beeee####be######eeeeeeeeeeebbc",
"ceeeeeee######beeeeeeeeeec######eeec####ee#######ceeeeeeeeebbc",
"ceeeeeeb######eeeeeeeeeeee######eee####cee#########ceeeeeeebbc",
"ceeeeeec######eeeeeeeeeeeec#####cee####eeec##########beeeeebbc",
"ceeeeeec#####ceeeeeeeeeeeeb######ec###ceeeec##########beeeebbc",
"ceeeeeec######eeeeeeeeeeeee######b####beeeeec##########eeeebbc",
"ceeeeeeb######eeeeeeeeeeeeec##########eeeeeeeb#########eeeebbc",
"ceeeeeee######beeeeeeeeeeeee#########ceeeeeeeeeb#######eeeebbc",
"ceeeeeeec######eeeeeeeeeeeee#########eeeeeeeeeeeec#####eeeebbc",
"ceeeeeeee######ceeeeeeeeeeeeb########eeeeecbeeeeec####ceeeebbc",
"ceeeeeeeeb#######bbbc#ceeeeee#######ceeeee##ccbbb#####beeeebbc",
"ceeeeeeeeee###########beeeeeec######eeeeeec##########beeeeebbc",
"ceeeeeeeeeeebc######ceeeeeeeebc##c#ceeeeeeebc######ceeeeeeebbc",
"ceeeeeeeeeeeeeeeeeeeeeeeeeeeeeeeeeeeeeeeeeeeeeeeeeeeeeeeeeebbc",
"ceeeeeeeeeeeeeeeeeeeeeeeeeeeeeeeeeeeeeeeeeeeeeeeeeeeeeeeeeebbc",
"ceeeeeeeeeeeeeeeeeeeeeeeeeeeeeeeeeeeeeeeeeeeeeeeeeeeeeeeeeebbc",
"cbbbbbbbbbbbbbbbbbbbbbbbbbbbbbbbbbbbbbbbbbbbbbbbbbbbbbbbbbbbbc",
"cbbbbbbbbbbbbbbbbbbbbbbbbbbbbbbbbbbbbbbbbbbbbbbbbbbbbbbbbbbbbc",
"cccccccccccccccccccccccccccccccccccccccccccccccccccccccccccccc"
};
