/* XPM */
static char * addb_xpm[] = {
"16 15 5 1",
".	c None",
"+	c #808080",
"@	c #FFFFFF",
"#	c #FF0000",
"$	c #000000",
"..++++++++++....",
"..+@@@@@@@@.+...",
"..+@@@##@@@.@+..",
"..+@@@##@@@$$$$.",
"..+@######@@@.$.",
"..+@######@@@.$.",
"..+@@@##@@@@@.$.",
"..+@@@##@@@@@.$.",
"..+@@@@@@@@@@.$.",
"..+@@$$@@@$@@.$.",
"..+@$@@$@$$@@.$.",
"..+@$@@$@@$@@.$.",
"..+@@$$@@@$@@.$.",
"..+...........$.",
"..++++++++++++$."};
