/* XPM */
static char * branch_xpm[] = {
"16 15 6 1",
".	c None",
"+	c #0000FF",
"@	c #FF0000",
"#	c #808080",
"$	c #FFFFFF",
"%	c #000000",
"...+............",
".+++++..........",
".+...+..........",
".+...+..........",
".+++++..........",
"...+............",
".+++++..........",
".+...+@@@@@.....",
".+...+....@.....",
".+++++....@.....",
"...+....@@@@@@..",
"........@....@..",
"...+....@....@..",
"........@@@@@@..",
"...+............"};
