/* XPM */
static char * test_xpm[] = {
"16 15 6 1",
".	c None",
"+	c #FF0000",
"@	c #808080",
"#	c #0000FF",
"$	c #00FF00",
"%	c #FFFFFF",
"..........+.....",
"..........++....",
"..+++++++++++...",
"..+++++++++++@..",
"...@@@@@@@++@...",
".....#....+@....",
"....##..........",
"...###########..",
"...###########@.",
"....##@@@@@@@@@.",
".....#@...$.....",
"......@...$$....",
"..$$$$$$$$$$$...",
"..$$$$$$$$$$$@..",
"...@@@@@@@$$@..."};
