/* XPM */
static char * error_xpm[] = {
"16 16 4 1",
".	c None",
"+	c #000080",
"@	c #FF0000",
"#	c #FFFF00",
".......+........",
".......+........",
"......+@+.......",
"......+@+.......",
".....+@@@+......",
".....+@#@+......",
"....+@@#@@+.....",
"....+@@#@@+.....",
"...+@@@#@@@+....",
"...+@@@#@@@+....",
"..+@@@@@@@@@+...",
"..+@@@@#@@@@+...",
".+@@@@@@@@@@@+..",
".+++++++++++++..",
"................",
"................"};
