/* XPM */
static const char *i_explore[] = {
/* width height num_colors chars_per_pixel */
"    16    15       13            1",
/* colors */
"c None",
". c #000000",
"# c #008000",
"a c #808000",
"b c #000080",
"d c #808080",
"e c #f80000",
"f c #00fc00",
"g c #f8fc00",
"h c #0000f8",
"i c #f800f8",
"j c #00fcf8",
"k c #f8fcf8",
/* pixels */
"ccdddddccccccccc",
"cdcgcgcdcccccccc",
"dcgcgcgcddddddcc",
"dcccccccccccca.c",
"dcgcdd.dgcgcga.c",
"dccdcjc.dgcgca.c",
"dcdcjcjc.dgcga.c",
"dcdjcjcj.acgca.c",
"dcdcjcjc.agcga.c",
"dccdcjc.daagca.c",
"dcgcd..dchhaga.c",
"daaaaaaabjhhaa.c",
"c........bjhh.cc",
"ccccccccccbjhh.c",
"cccccccccccbjh.c"
};
