/* XPM */
static const char *i_state9[] = {
/* width height num_colors chars_per_pixel */
"    16    16        9            1",
/* colors */
"f c None,"
". c #000000",
"# c #000080",
"a c #c0c0c0",
"b c #808080",
"c c #f80000",
"d c #f8fc00",
"e c #0000f8",
"g c #ffffff",
/* pixels */
"ffffffffffffffff",
"fffbbbbfffffffff",
"ffbdadbfbfffffff",
"fbdadabfbbbbbbbf",
"fbgggbfbggggggb.",
"fbgdabfbadadadb.",
"fbgadbfbdadadab.",
"fbgdbfbdadadadb.",
"fbgadbfbdadadab.",
"fbgdadbfbdadadb.",
"fbgadabfbadadab.",
"fbgdabfbadadadb.",
"fbbbbbfbbbbbbbb.",
"ff..............",
"ffffffffffffffff",
"ffffffffffffffff"
};
