/* XPM */
static char *gcvs[]={
"32 32 31 1",
". c None",
"h c #008c9c",
"g c #1094a5",
"B c #21948c",
"p c #31a5b5",
"i c #4ab5bd",
"m c #63bdce",
"d c #7394b5",
"z c #739c5a",
"A c #849c42",
"a c #8cadc6",
"C c #9ca531",
"l c #9cb5ce",
"k c #9cd6de",
"o c #adb5ce",
"n c #b5c6d6",
"b c #bdbdbd",
"j c #bdcede",
"y c #cea518",
"c c #cecece",
"e c #cedee7",
"# c #efefef",
"t c #ffad00",
"s c #ffb510",
"r c #ffc642",
"w c #ffce63",
"x c #ffd673",
"q c #ffd684",
"v c #ffe7ad",
"u c #ffefce",
"f c #ffffff",
".......................#........",
".........................a......",
".....................b...c.d....",
"......................d#efd.....",
"............#ghie...#djkka#bl...",
"............hhkmh.....noel......",
"...........khhhpge.e#.elll#de...",
".....phg...#hhhhh#...##an.o.....",
".....hgkh...ghhhg...#..b...#....",
".....hhhh....ee.................",
".....phh#.......................",
"................................",
"...........................qrr..",
"..iim.....qstttrq.......uttttt..",
"..hhh...sttttttttttv...wtttttt..",
"...m..utttttttttttttt.uttttttx..",
".....uttttttttttttttttttttttt...",
".....tyhhztttttttttttttttttt....",
"....tthpghtttttttttttttttts.....",
"....ttAhhBtttttttttttttttu......",
"...vtttyCttttttttttttttttt......",
"...utttttttttttttttttttttts.....",
"...uttttttttttttttttttttttts....",
"....wtttttstttttttttttttttttq...",
".....qrrvqtttttttttttsrtttttt...",
"......vstttttttttttt#..vttttt...",
"........rttttttttsu......sttt...",
"................................",
"................................",
"................................",
"................................",
"................................"};
