/* XPM */
static char * test_xpm[] = {
"17 15 7 1",
".	c None",
"+	c #000000",
"@	c #000080",
"#	c #00FFFF",
"$	c #808080",
"%	c #FF00FF",
"&	c #0000FF",
".................",
".................",
".+++++++.....+...",
".+@@@@@+....+#+..",
".+@@@@@+...$++#+.",
".+@@@@@+++++++++.",
".+@@@@@+..+..$+$.",
".+@@@@@+..+......",
".+++++++..+......",
"..........+..+...",
"..........+.+%+..",
"..........+$++%+.",
"..........++++++.",
".............$+$.",
"................."};
