/* XPM */
static char *hideUnknown[] = {
/* width height num_colors chars_per_pixel */
"    16    15        5            1",
/* colors */
". c #000000",
"# c #000080",
"a c #c0c0c0",
"b c #808080",
"c c #ffffff",
/* pixels */
"bbbbbbbbaaaaaaaa",
"bccccccabaaaaaaa",
"bccccccacbaaaaaa",
"bcccccc...aaaaaa",
"bcc###ccc.aaaaaa",
"bc#####cc.aaaaaa",
"bc#ccc##c.aaaaaa",
"bccccc##c.aaaaaa",
"bcccc##.c.aaaaaa",
"bccc##ccc.a.baa.",
"bccc##ccc.aa.b.b",
"bcccccccc.aaa.ba",
"bccc##ccc.aa.b.b",
"bcccccccc.a.baa.",
"baaaaaaaa.abaaaa"
};
