/* XPM */
static char * release_xpm[] = {
"16 15 7 1",
".	c None",
"+	c #C0C0C0",
"@	c #808080",
"#	c #FFFF00",
"$	c #0000FF",
"%	c #000080",
"&	c #FFFFFF",
".....+++++++++++",
"++++++++++++++++",
"....++++++++++++",
"++++++++++.+++++",
".....++++.++++++",
"++++++++....++++",
"..@####.$$$%.+++",
"+@##@@##$$$%.+++",
".@##@@##$$%%%...",
"+@@+@##$$%%%$$$.",
"+++@##..%%%$$$.+",
"+++.##++.%$$$.++",
"++.@@@+++....+++",
"+.+@##++++++++++",
".++@##++++++++++"};
