/* XPM */
static const char *i_reload[] = {
/* width height num_colors chars_per_pixel */
"    16    15       13            1",
/* colors */
". c #000000",
"# c #008000",
"a c #808000",
"b c #000080",
"c None",
"d c #808080",
"e c #f80000",
"f c #00fc00",
"g c #f8fc00",
"h c #0000f8",
"i c #f800f8",
"j c #00fcf8",
"k c #f8fcf8",
/* pixels */
"c...........cccc",
"c.kkkkkkkkk..ccc",
"c.kkkkkkkkk.k.cc",
"c.kkkkkk#kk....c",
"c.kkkkkk##kkkk.c",
"c.kkkk#####kkk.c",
"c.kkk#kk##kkkk.c",
"c.kkk#kk#kkkkk.c",
"c.kkk#kkkk#kkk.c",
"c.kkkkk#kk#kkk.c",
"c.kkkk##kk#kkk.c",
"c.kkk#####kkkk.c",
"c.kkkk##kkkkkk.c",
"c.kkkkk#kkkkkk.c",
"c..............c"
};
