/* XPM */
static char * res_edit_xpm[] = {
"16 15 7 1",
" 	c None",
".	c #000000",
"+	c #808080",
"@	c #808000",
"#	c #C0C0C0",
"$	c #FFFF00",
"%	c #008000",
"                ",
"          ...   ",
"         .+++.  ",
"         ..@+.  ",
"        .#$...  ",
"        .$$$.   ",
"       .$$$$.   ",
"       .$$$.    ",
"      .#$$%%%%  ",
"      .##%%@@%% ",
"      ...%%@ @@ ",
"      ...%%     ",
"      .. %%  %% ",
" . ....  @%%%%@ ",
"          @@@@  "};
