/* XPM */
static char * test_xpm[] = {
"16 15 5 1",
".	None",
"+	c #808080",
"@	c #FFFFFF",
"#	c #0000FF",
"$	c #000000",
"..++++++++++....",
"..+@@@@@@@@.+...",
"..+@@####@@.@+..",
"..+@##@@##@$$$$.",
"..+@##@@##@@@.$.",
"..+@@@@@##@@@.$.",
"..+@@@@##@@@@.$.",
"..+@@@##@@@@@.$.",
"..+@@@##@@@@@.$.",
"..+@@@@@@@@@@.$.",
"..+@@@##@@@@@.$.",
"..+@@@##@@@@@.$.",
"..+@@@@@@@@@@.$.",
"..+...........$.",
"..++++++++++++$."};
