/* XPM */
static char * unedit_xpm[] = {
"16 15 6 1",
".	c None",
"+	c #808080",
"@	c #000000",
"#	c #FFFFFF",
"$	c #808000",
"%	c #FFFF00",
"................",
"................",
"........+@@@@++.",
".......@######@.",
"......@######@@.",
".....@######@+@.",
"....@######@++@.",
"...@######@++@..",
"..@######@++@...",
"..@.....@++@....",
".@......@+@.....",
".@......@@......",
"..@@@@@@+.......",
"................",
"................"};
