/* XPM */
static char * unedit_xpm[] = {
"16 15 4 1",
".	c None",
"+	c #808080",
"@	c #FFFFFF",
"#	c #000000",
"................",
"................",
"++++........++++",
"++............++",
"...+++....+++...",
"..+++......+++..",
".+++........+++.",
".++..........++.",
".++..........++.",
".+......+....++.",
".......+++...+..",
"......++..+.....",
"................",
"................",
"................"};
