/* XPM */
static const char *i_upfolder[] = {
/* width height num_colors chars_per_pixel */
"    16    15       13            1",
/* colors */
". c #000000",
"# c #008000",
"a c #808000",
"b c #000080",
"c None",
"d c #808080",
"e c #f80000",
"f c #00fc00",
"g c #f8fc00",
"h c #0000f8",
"i c #f800f8",
"j c #00fcf8",
"k c #f8fcf8",
/* pixels */
"cccccccccccccccc",
"ccc.....cccccccc",
"cc.gcgcg.ccccccc",
"c..............c",
"c.cgcgcgcgcgcgc.",
"c.gcgc.cgcgcgcg.",
"c.cgc...cgcgcgc.",
"c.gc.....cgcgcg.",
"c.cgcg.gcgcgcgc.",
"c.gcgc.cgcgcgcg.",
"c.cgcg......cgc.",
"c.gcgcgcgcgcgcg.",
"c.cgcgcgcgcgcgc.",
"c...............",
"cccccccccccccccc"
};
