/* XPM */
static char *viewConflict[] = {
/* width height num_colors chars_per_pixel */
"    16    15        5            1",
/* colors */
". c #000000",
"# c #c0c0c0",
"a c #808080",
"b c #ff0000",
"c c #ffffff",
/* pixels */
"aaaaaaaaa#######",
"abbbbbbb#a######",
"abbbbbbb#ca#####",
"abbbcccb....####",
"abbccbccbb#.####",
"abccbbbcbb#.####",
"abccbbbbbb...###",
"abccbbbbb.###.##",
"abccbbbb.bcc##.#",
"abccbbbb.#c###.#",
"abccbbbc.b#.##.#",
"abbccbcca.###..#",
"abbbcccbba....a#",
"abbbbbbbbb#.#..a",
"a##########.##.."
};
