/* XPM */
static char *viewUnknown[] = {
/* width height num_colors chars_per_pixel */
"   16    15        8            1",
/* colors */
". c #000000",
"# c #000080",
"a c #c0c0c0",
"b c #808080",
"d c #ff0000",
"e c #0000ff",
"f c #00ffff",
"g c #ffffff",
/* pixels */
"bbbbbbbbbaaaaaaa",
"bgggggggabaaaaaa",
"bgggggggagbaaaaa",
"bggggggg....aaaa",
"bgg###gggga.aaaa",
"bg#####ggga.aaaa",
"bg#ggg##gg...aaa",
"bggggg##g.aaa.aa",
"bgggg##g.gggaa.a",
"bggg##gg.agaaa.a",
"bggg##gg.ga.aa.a",
"bgggggggb.aaa..a",
"bggg##gggb....ba",
"bggggggggga.a..b",
"baaaaaaaaaa.aa.."
 1234567890123456
};
