/* XPM */
static char *viewAdded[] = {
/* width height num_colors chars_per_pixel */
"   16    15        9            1",
/* colors */
". c #000000",
"# c #008000",
"a c #000080",
"b c #c0c0c0",
"c c #808080",
"d c #ff0000",
"e c #0000ff",
"f c #00ffff",
"g c #ffffff",
/* pixels */
"ccccccccbbbbbbbb",
"cdddddddcbbbbbbb",
"cdddddddgcbbbbbb",
"cdddddgd...bbbbb",
"cddddggddd.bbbbb",
"cddddgggdd.bbbbb",
"cdddgdggdd...bbb",
"cdddgddgg..bb.bb",
"cdddgggg.bggbb.b",
"cddgdddg.bgbbb.b",
"cddgdddd.gbbbb.b",
"cdgggddgc.gbb..b",
"cddddddddc....cb",
"cddddddddd.bb..c",
"...........bbb.."
};
